Coordinates
version=1
nRows=10
nColumns=46
inDegrees=yes

Units are S.I. units (second, meters, Newtons, ...)
Angles are in degrees.

endheader
time	pelvis_tilt	pelvis_list	pelvis_rotation	pelvis_tx	pelvis_ty	pelvis_tz	bb_angle	bb_tx	bb_ty	bb_tz	hip_flexion_r	hip_adduction_r	hip_rotation_r	knee_angle_r	knee_angle_r_beta	ankle_angle_r	subtalar_angle_r	mtp_angle_r	crank_angle_r	hip_flexion_l	hip_adduction_l	hip_rotation_l	knee_angle_l	knee_angle_l_beta	ankle_angle_l	subtalar_angle_l	mtp_angle_l	crank_angle_l	lumbar_extension	lumbar_bending	lumbar_rotation	arm_flex_r	arm_add_r	arm_rot_r	elbow_flex_r	pro_sup_r	wrist_flex_r	wrist_dev_r	arm_flex_l	arm_add_l	arm_rot_l	elbow_flex_l	pro_sup_l	wrist_flex_l	wrist_dev_l
      0.00000000	     -7.14766071	     -3.92186347	     -2.35157809	      0.18196829	      1.04756738	     -0.31837555	      0.00000000	      0.50000000	      0.00000000	      0.25000000	     80.78714707	     -1.36338212	      1.38909762	     99.61027325	      1.73852724	     20.22638751	     -5.60241428	      0.00000000	      0.00000000	     41.07740575	    -12.36318834	     -2.40208026	     65.57933614	      1.14457534	     -9.63415132	     -8.01739856	      0.00000000	      0.00000000	    -57.82161863	     -0.70901756	      5.88218979	     89.64158368	     -1.77423946	     45.96280391	     13.11858241	     20.22487887	      0.00000000	      0.00000000	     89.34130070	      1.73116933	     37.50728682	     15.66706270	     23.89459903	      0.00000000	      0.00000000
      0.00500000	     -7.14648501	     -3.92936149	     -2.34279828	      0.18195662	      1.04756295	     -0.31837940	      0.00000000	      0.50000000	      0.00000000	      0.25000000	     80.78840470	     -1.36326712	      1.38491715	     99.61604937	      1.73862805	     20.22656679	     -5.60163107	      0.00000000	      0.00000000	     41.07839734	    -12.36230669	     -2.38197336	     65.57857219	      1.14456200	     -9.62423951	     -8.01279551	      0.00000000	      0.00000000	    -57.83724661	     -0.69314182	      5.87813412	     89.63758638	     -1.59553724	     44.05292997	     13.41045359	     20.21299889	      0.00000000	      0.00000000	     89.34527232	      1.89001223	     36.54736832	     15.62128771	     23.78741131	      0.00000000	      0.00000000
      0.01000000	     -6.90462879	     -4.09893589	     -2.26023113	      0.18185288	      1.04800959	     -0.31852216	      0.00000000	      0.50000000	      0.00000000	      0.25000000	     80.46693099	     -1.38940719	      1.17788346	     99.58266821	      1.73804544	     20.23771271	     -5.73778041	      0.00000000	      0.00000000	     40.85257190	    -12.47258884	     -2.26033524	     65.55245155	      1.14410611	     -9.70674548	     -8.10754174	      0.00000000	      0.00000000	    -58.23285808	     -0.52866870	      6.07662047	     89.63234118	     -1.97495714	     42.45033137	     14.96767007	     20.96115510	      0.00000000	      0.00000000	     89.28606473	      1.70777722	     35.45479143	     17.24413893	     24.40404324	      0.00000000	      0.00000000
      0.01500000	     -7.18382936	     -4.01285574	     -2.63824317	      0.18221360	      1.04786840	     -0.31840982	      0.00000000	      0.50000000	      0.00000000	      0.25000000	     80.66392751	     -1.05182608	      1.37073780	     99.48442587	      1.73633079	     20.45126200	     -5.50855562	      0.00000000	      0.00000000	     40.99430678	    -12.63163286	     -2.64249496	     65.51063971	      1.14337636	     -9.69616575	     -8.16811326	      0.00000000	      0.00000000	    -57.86381915	     -0.83763131	      6.15437056	     89.63557765	     -1.55843107	     42.28784787	     13.74576592	     20.99102503	      0.00000000	      0.00000000	     89.31679537	      2.03661040	     35.35204941	     15.82391731	     24.50349887	      0.00000000	      0.00000000
      0.02000000	     -6.89297188	     -4.11166279	     -2.64786261	      0.18208389	      1.04868751	     -0.31831582	      0.00000000	      0.50000000	      0.00000000	      0.25000000	     80.32729431	     -1.07024930	      1.24948773	     99.47998995	      1.73625336	     20.49829695	     -5.46151387	      0.00000000	      0.00000000	     40.62462772	    -12.71273642	     -2.64702986	     65.35747741	      1.14070317	     -9.99322235	     -8.47974423	      0.00000000	      0.00000000	    -58.26306562	     -0.77554008	      6.27709949	     89.63450318	     -1.61224544	     40.06442665	     14.42878718	     22.20926748	      0.00000000	      0.00000000	     89.28486442	      2.00465538	     33.73863019	     16.66490204	     25.66251732	      0.00000000	      0.00000000
      0.02500000	     -7.32621522	     -4.10991885	     -2.57642088	      0.18200831	      1.04774599	     -0.31826556	      0.00000000	      0.50000000	      0.00000000	      0.25000000	     80.87235445	     -1.15227277	      1.22411880	     99.55288772	      1.73752567	     20.34740189	     -5.62253700	      0.00000000	      0.00000000	     41.23072419	    -12.66915282	     -2.44391203	     65.55121683	      1.14408456	     -9.70733447	     -7.94682093	      0.00000000	      0.00000000	    -57.63739935	     -0.65700159	      6.12671737	     89.64686525	     -1.92493190	     48.82425708	     12.69244130	     19.25514985	      0.00000000	      0.00000000	     89.32675194	      1.61690518	     38.84536458	     15.17290896	     24.05464326	      0.00000000	      0.00000000
      0.03000000	     -7.30221249	     -4.08799010	     -2.56849113	      0.18201758	      1.04782167	     -0.31826204	      0.00000000	      0.50000000	      0.00000000	      0.25000000	     80.85306614	     -1.17377376	      1.23587473	     99.56445417	      1.73772754	     20.33348670	     -5.66354582	      0.00000000	      0.00000000	     41.19660926	    -12.65248696	     -2.46193301	     65.53037840	      1.14372086	     -9.71769294	     -7.91741247	      0.00000000	      0.00000000	    -57.65210219	     -0.68090701	      6.10841736	     89.65001724	     -1.94926036	     49.26704446	     12.56680674	     18.58015477	      0.00000000	      0.00000000	     89.31947213	      1.61475668	     38.85910695	     15.35777972	     23.49277044	      0.00000000	      0.00000000
      0.03500000	     -7.29144100	     -4.04753692	     -2.56795309	      0.18199455	      1.04791672	     -0.31829866	      0.00000000	      0.50000000	      0.00000000	      0.25000000	     80.84464362	     -1.19862121	      1.28100906	     99.57139612	      1.73784870	     20.37998539	     -5.55886700	      0.00000000	      0.00000000	     41.17034717	    -12.59631951	     -2.48382123	     65.48081939	      1.14285590	     -9.83393095	     -8.03478534	      0.00000000	      0.00000000	    -57.74129346	     -0.66964181	      6.06510409	     89.63232424	     -1.37621266	     41.61497507	     13.62498951	     21.85064390	      0.00000000	      0.00000000	     89.32353136	      2.05231300	     34.77334573	     15.27047923	     25.54299593	      0.00000000	      0.00000000
      0.04000000	     -7.30847508	     -4.07529836	     -2.56512672	      0.18197754	      1.04794860	     -0.31826983	      0.00000000	      0.50000000	      0.00000000	      0.25000000	     80.85025770	     -1.18184506	      1.25722184	     99.55740538	      1.73760452	     20.36480416	     -5.57448099	      0.00000000	      0.00000000	     41.19822792	    -12.61753603	     -2.44350435	     65.48102193	      1.14285943	     -9.82937697	     -7.98609819	      0.00000000	      0.00000000	    -57.76565966	     -0.63837136	      6.06572253	     89.62143841	     -0.66385502	     34.40648820	     14.12092503	     24.89964538	      0.00000000	      0.00000000	     89.32188779	      2.53758419	     30.14349985	     15.21496691	     28.04637921	      0.00000000	      0.00000000
      0.04500000	     -7.16813491	     -3.92650712	     -2.61853686	      0.18203433	      1.04827449	     -0.31821644	      0.00000000	      0.50000000	      0.00000000	      0.25000000	     80.72140398	     -1.18638438	      1.41129796	     99.59251708	      1.73821733	     20.40376765	     -5.53052905	      0.00000000	      0.00000000	     40.95064663	    -12.51703553	     -2.63446344	     65.35045298	      1.14058057	     -9.98328641	     -8.17521810	      0.00000000	      0.00000000	    -57.94080999	     -0.83899059	      6.10281681	     89.62217200	     -0.96068164	     34.28217220	     14.40961979	     24.66098367	      0.00000000	      0.00000000	     89.31671350	      2.68020390	     30.06615527	     15.63310100	     27.91062766	      0.00000000	      0.00000000
